<?xml version="1.0" encoding="utf-8"?>
<!-- Generator: Adobe Illustrator 23.0.2, SVG Export Plug-In . SVG Version: 6.00 Build 0)  -->
<svg version="1.1" id="Layer_1" xmlns="http://www.w3.org/2000/svg" xmlns:xlink="http://www.w3.org/1999/xlink" x="0px" y="0px"
	 viewBox="0 0 450 81.4" style="enable-background:new 0 0 450 81.4;" xml:space="preserve">
<style type="text/css">
	.st0{fill:#FFFFFF;}
</style>
<g>
	<path class="st0" d="M63.9,69.5c-4.2-0.9-5.5-1.9-5.5-3.9v-0.1c0-1.9,1.8-3.2,4.3-3.2c2.2,0,4,0.7,5.9,2.2l0,0l1.4-1.9l0,0
		c-2.2-1.8-4.4-2.5-7.3-2.5c-3.9,0-6.8,2.4-6.8,5.6v0.1c0,3.2,1.9,4.9,6.9,6c4.4,0.9,5.3,2.1,5.3,3.9v0.1c0,2-1.9,3.4-4.5,3.4
		c-2.7,0-4.7-0.8-7-2.9l0,0l-1.5,1.7l0,0l0,0c2.5,2.2,5.2,3.3,8.4,3.3c2,0,3.8-0.6,5.1-1.6c1.3-1.1,2-2.5,2-4.3v-0.1
		C70.7,72.3,68.6,70.5,63.9,69.5L63.9,69.5z"/>
	<path class="st0" d="M90.9,76.1c-1.9,1.8-3.7,2.9-6.6,2.9c-2.2,0-4.2-0.9-5.6-2.4c-1.5-1.6-2.3-3.7-2.3-6v-0.1
		c0-2.3,0.8-4.4,2.3-5.9c1.5-1.6,3.5-2.4,5.6-2.4c3.1,0,5,1.5,6.4,2.8l0,0l1.7-1.8l0,0c-1.8-1.7-4-3.3-8-3.3c-2.9,0-5.6,1.1-7.5,3.1
		c-1.9,2-2.9,4.6-2.9,7.5v0.1c0,2.9,1,5.6,2.9,7.5c1.9,2,4.5,3.1,7.4,3.1c2.3,0,5.1-0.4,8.3-3.6l0,0L90.9,76.1L90.9,76.1L90.9,76.1z
		"/>
	<polygon class="st0" points="111.2,69.4 99.5,69.4 99.5,60.3 97,60.3 97,81 99.5,81 99.5,71.7 111.2,71.7 111.2,81 113.6,81 
		113.6,60.3 111.2,60.3 111.2,69.4 	"/>
	<path class="st0" d="M128.3,60c-3,0-5.7,1.1-7.6,3.2c-1.9,2-2.9,4.6-2.9,7.5v0.1c0,2.8,1,5.5,2.9,7.5c1.9,2,4.6,3.2,7.6,3.2
		c3,0,5.7-1.1,7.6-3.2c1.9-2,2.9-4.7,2.9-7.5v-0.1c0-2.8-1-5.5-2.9-7.4C134,61.1,131.3,60,128.3,60L128.3,60z M136.3,70.6
		L136.3,70.6c0,4.8-3.4,8.4-8,8.4c-2.2,0-4.3-0.9-5.8-2.5c-1.5-1.6-2.3-3.7-2.3-6v-0.1c0-4.8,3.4-8.3,8-8.3c2.2,0,4.3,0.9,5.8,2.5
		C135.5,66.3,136.3,68.4,136.3,70.6L136.3,70.6z"/>
	<path class="st0" d="M152.4,60c-3,0-5.7,1.1-7.6,3.2c-1.9,2-2.9,4.6-2.9,7.5v0.1c0,2.8,1,5.5,2.9,7.5c1.9,2,4.6,3.2,7.6,3.2
		c3,0,5.7-1.1,7.6-3.2c1.9-2,2.9-4.7,2.9-7.5v-0.1c0-2.8-1-5.5-2.9-7.4C158.1,61.1,155.4,60,152.4,60L152.4,60z M160.4,70.6
		L160.4,70.6c0,4.8-3.4,8.4-8,8.4c-2.2,0-4.3-0.9-5.8-2.5c-1.5-1.6-2.3-3.7-2.3-6v-0.1c0-4.8,3.4-8.3,8-8.3c2.2,0,4.3,0.9,5.8,2.5
		C159.6,66.3,160.4,68.4,160.4,70.6L160.4,70.6z"/>
	<polygon class="st0" points="169.4,60.3 167,60.3 167,81 181,81 181,78.7 169.4,78.7 169.4,60.3 	"/>
	<path class="st0" d="M200.7,60c-3,0-5.7,1.1-7.6,3.2c-1.9,2-2.9,4.6-2.9,7.5v0.1c0,2.8,1,5.5,2.9,7.5c1.9,2,4.6,3.2,7.6,3.2
		c3,0,5.7-1.1,7.6-3.2c1.9-2,2.9-4.7,2.9-7.5v-0.1c0-2.8-1-5.5-2.9-7.4C206.4,61.1,203.7,60,200.7,60L200.7,60z M208.7,70.6
		L208.7,70.6c0,4.8-3.4,8.4-8,8.4c-2.2,0-4.3-0.9-5.8-2.5c-1.5-1.6-2.3-3.7-2.3-6v-0.1c0-4.8,3.4-8.3,8-8.3c2.2,0,4.3,0.9,5.8,2.5
		C207.9,66.3,208.7,68.4,208.7,70.6L208.7,70.6z"/>
	<polygon class="st0" points="216.1,81 218.6,81 218.6,72 229.7,72 229.7,69.8 218.6,69.8 218.6,62.6 231,62.6 231,60.3 216.1,60.3 
		216.1,81 	"/>
	<path class="st0" d="M257.8,70.3c1.5-0.7,3.1-2,3.1-4.7v-0.1c0-1.3-0.4-2.4-1.3-3.3c-1.2-1.2-3.1-1.8-5.4-1.8l-8.8,0V81l9.2,0
		c4.6,0,7.5-2.2,7.5-5.7v-0.1C262,72.9,260.6,71.2,257.8,70.3L257.8,70.3z M259.6,75.1L259.6,75.1c0,2.3-1.9,3.7-5,3.7h-6.8v-7.1
		h6.4C257.7,71.6,259.6,72.9,259.6,75.1L259.6,75.1z M247.8,69.5v-6.9h6.2c2.8,0,4.5,1.2,4.5,3.3v0.1c0,2.3-1.7,3.6-4.7,3.6H247.8
		L247.8,69.5z"/>
	<path class="st0" d="M280.8,72.3c0,4.3-2.2,6.7-6.1,6.7c-4,0-6.2-2.5-6.2-6.9V60.3H266v12c0,2.8,0.8,5.1,2.4,6.7
		c1.5,1.5,3.6,2.3,6.2,2.3c5.4,0,8.6-3.4,8.6-9.2V60.3h-2.4V72.3L280.8,72.3z"/>
	<path class="st0" d="M295.7,69.5c-4.2-0.9-5.5-1.9-5.5-3.9v-0.1c0-1.9,1.8-3.2,4.3-3.2c2.2,0,4,0.7,5.9,2.2l0,0l1.4-1.9l0,0
		c-2.2-1.8-4.4-2.5-7.3-2.5c-3.9,0-6.8,2.4-6.8,5.6v0.1c0,3.2,1.9,4.9,6.9,6c4.4,0.9,5.3,2.1,5.3,3.9v0.1c0,2-1.9,3.4-4.5,3.4
		c-2.7,0-4.7-0.8-7-2.9l0,0l-1.5,1.7l0,0l0,0c2.5,2.2,5.2,3.3,8.4,3.3c2,0,3.8-0.6,5.1-1.6c1.3-1.1,2-2.5,2-4.3v-0.1
		C302.5,72.3,300.4,70.5,295.7,69.5L295.7,69.5z"/>
	<polygon class="st0" points="308.3,81 310.7,81 310.7,60.3 308.3,60.3 308.3,81 	"/>
	<polygon class="st0" points="332.9,76.7 320,60.3 320,60.3 317.8,60.3 317.8,81 320.1,81 320.1,64.2 333.3,81 335.2,81 335.2,60.3 
		332.9,60.3 332.9,76.7 	"/>
	<polygon class="st0" points="343.8,71.7 355,71.7 355,69.4 343.8,69.4 343.8,62.6 356.3,62.6 356.3,60.3 341.3,60.3 341.3,81 
		356.4,81 356.4,78.7 343.8,78.7 343.8,71.7 	"/>
	<path class="st0" d="M369.1,69.5c-4.2-0.9-5.5-1.9-5.5-3.9v-0.1c0-1.9,1.8-3.2,4.3-3.2c2.2,0,4,0.7,5.9,2.2l0,0l1.4-1.8l0,0l0,0
		c-2.2-1.8-4.4-2.5-7.3-2.5c-3.9,0-6.8,2.4-6.8,5.6v0.1c0,3.2,1.9,4.9,6.9,6c4.4,0.9,5.3,2.1,5.3,3.9v0.1c0,2-1.9,3.4-4.5,3.4
		c-2.7,0-4.7-0.8-7-2.9l0,0l-1.5,1.7l0,0l0,0c2.5,2.2,5.2,3.3,8.4,3.3c2,0,3.8-0.6,5.1-1.6c1.3-1.1,2-2.5,2-4.3v-0.1
		C375.8,72.3,373.8,70.5,369.1,69.5L369.1,69.5z"/>
	<path class="st0" d="M388.1,69.5c-4.2-0.9-5.5-1.9-5.5-3.9v-0.1c0-1.9,1.8-3.2,4.3-3.2c2.2,0,4,0.7,5.9,2.2l0,0l1.4-1.8l0,0l0,0
		c-2.2-1.8-4.4-2.5-7.3-2.5c-3.9,0-6.8,2.4-6.8,5.6v0.1c0,3.2,1.9,4.9,6.9,6c4.4,0.9,5.3,2.1,5.3,3.9v0.1c0,2-1.9,3.4-4.5,3.4
		c-2.7,0-4.7-0.8-7-2.9l0,0l-1.5,1.7l0,0l0,0c2.5,2.2,5.2,3.3,8.4,3.3c2,0,3.8-0.6,5.1-1.6c1.3-1.1,2-2.5,2-4.3v-0.1
		C394.9,72.3,392.9,70.5,388.1,69.5L388.1,69.5z"/>
	<path class="st0" d="M36.3,19.5c-0.1,0-0.1-0.1,0-0.2c3.1-1,5.9-3.2,5.9-8.7c0-7.4-5-9.9-15.9-9.9H0.1C0,0.8,0,1.2,0.1,1.3
		c0,0,0,0,0,0c1.2,0.2,2,0.3,2.8,0.8c0.8,0.5,0.7,0.9,0.7,2l0,33.6c0,1.1,0.1,1.5-0.7,2c-0.8,0.5-1.5,0.5-2.8,0.8c0,0,0,0,0,0
		c-0.1,0-0.1,0.5,0,0.5h27.2c11.5,0,16.3-4.6,16.3-11.7C43.6,23.9,41.2,20.7,36.3,19.5L36.3,19.5z M17.3,8.3h5.3
		c4,0,6.4,0.6,6.4,4.3c0,2.4-1.5,4.5-6.2,4.5h-5.4c-0.5,0-0.9,0.1-0.9,0.1s0.1-0.5,0.1-0.9v-7c0-0.5-0.1-1-0.1-1S16.8,8.3,17.3,8.3
		L17.3,8.3z M22.3,33.1h-5.1c-0.5,0-0.9,0.1-0.9,0.1s0.1-0.5,0.1-1v-8.1c0-0.5-0.1-0.9-0.1-0.9s0.5,0.1,0.9,0.1h4.5
		c3.6,0,7.9,0,7.9,4.9C29.6,31.8,26.5,33.1,22.3,33.1L22.3,33.1z"/>
	<path class="st0" d="M92.4,0.8l-18.7,0c-0.2,0-0.1,0.5,0,0.5c0,0,0,0,0,0c0.9,0,2,0,1.8,1.3c-0.1,1.3-5.5,9.1-7.4,12
		c-0.3,0.4-0.5,0.9-0.6,1.4c-0.1-0.5-0.4-1.1-0.6-1.4c-2.7-4-7.3-10.5-7.4-12c-0.1-1.4,0.9-1.3,1.8-1.3c0,0,0,0,0,0
		c0.1,0,0.2-0.5,0-0.5H41.8c-0.1,0-0.1,0.5,0,0.5c0,0,0,0,0,0c0.8,0.1,1.3,0,2.3,0.5c0.1,0.1,0.4,0.2,0.5,0.3c0.6,0.5,1,1,1.8,2.1
		l13.9,20.5l0,12.9c0,1.1,0.1,1.5-0.7,2c-0.8,0.5-1.5,0.5-2.8,0.8c0,0,0,0,0,0c-0.1,0-0.1,0.5,0,0.5h21.3c0.1,0,0.2-0.5,0-0.5
		c0,0,0,0,0,0c-1.2-0.2-2-0.3-2.8-0.8c-0.8-0.5-0.7-0.9-0.7-2V24.9L88.5,4.3c0.8-1.1,1.2-1.7,1.9-2.2c0.1-0.1,0.4-0.3,0.5-0.4
		c0.6-0.3,0.8-0.4,1.5-0.4c0,0,0,0,0,0C92.5,1.3,92.6,0.8,92.4,0.8L92.4,0.8z"/>
	<path class="st0" d="M142.4,0.8h-20.1c-0.1,0-0.2,0.5,0,0.5c0,0,0,0,0,0c1.3,0.2,1.9,0.3,2.6,0.8c0.8,0.5,0.7,0.9,0.7,2v20.2
		c0,4.6-2.6,8.2-7.9,8.2c-5.2,0-7.9-3.5-7.9-8.2l0-20.2c0-1.1-0.1-1.5,0.7-2c0.8-0.5,1.4-0.6,2.6-0.8c0,0,0,0,0,0
		c0.1,0,0.1-0.5,0-0.5l-18.9,0c-0.1,0-0.1,0.5,0,0.5c0,0,0,0,0,0c0.7,0,1.2,0.1,1.6,0.4c0.6,0.5,0.7,1.2,0.7,2.3v19.9
		c0,9.6,5.2,17.7,21.2,17.7s21.2-8.1,21.2-17.7V4c0-1.1-0.1-1.5,0.7-2c0.8-0.5,1.5-0.5,2.8-0.8c0,0,0,0,0,0
		C142.6,1.2,142.5,0.8,142.4,0.8L142.4,0.8z"/>
	<polygon class="st0" points="415.5,0.7 386.8,0.7 386.8,6.1 399.8,6.1 399.8,40.9 405.6,40.9 405.6,6.1 415.5,6.1 415.5,0.7 	"/>
	<polygon class="st0" points="450,6.1 450,0.7 421.3,0.7 421.3,6.1 431.2,6.1 431.2,40.9 437,40.9 437,6.1 450,6.1 	"/>
	<path class="st0" d="M364.1,0c-11.5,0-20.5,9.1-20.5,20.7v0.1c0,11.8,8.8,20.6,20.4,20.6c11.5,0,20.5-9.1,20.5-20.7v-0.1
		C384.5,8.9,375.8,0,364.1,0L364.1,0z M364.1,36.1c-8.4,0-14.6-6.6-14.6-15.4v-0.1c0-8.7,6.2-15.3,14.5-15.3
		c8.4,0,14.6,6.6,14.6,15.4v0.1C378.7,29.6,372.4,36.1,364.1,36.1L364.1,36.1z"/>
	<path class="st0" d="M318.9,13v-0.1c0-3.2-1.1-6.1-3.2-8.1c-2.6-2.6-6.7-4.1-11.5-4.1h-17.4v40.2h5.7V25.8h10.1l11.3,15.1h7
		l-12.1-16.1C315.2,23.3,318.9,18.9,318.9,13L318.9,13z M292.6,6.1h11.3c5.9,0,9.3,2.5,9.3,7v0.1c0,4.4-3.7,7.3-9.3,7.3h-11.3V6.1
		L292.6,6.1z"/>
	<polygon class="st0" points="328.8,40.9 334.5,40.9 334.5,0.7 328.8,0.7 328.8,40.9 	"/>
	<path class="st0" d="M277.8,13v-0.1c0-3.2-1.1-6.1-3.2-8.1c-2.6-2.6-6.7-4.1-11.5-4.1h-17.4v40.2h5.7V25.8h10.1l11.3,15.1h7
		l-12.1-16.1C274.1,23.3,277.8,18.9,277.8,13L277.8,13z M251.5,6.1h11.3c5.9,0,9.3,2.5,9.3,7v0.1c0,4.4-3.7,7.3-9.3,7.3h-11.3V6.1
		L251.5,6.1z"/>
	<polygon class="st0" points="173.5,21.5 159.7,0.7 154.3,0.7 154.3,40.8 159.9,40.8 159.9,10.9 173.5,31 187.1,10.9 187.1,40.8 
		192.8,40.8 192.8,0.7 187.3,0.7 173.5,21.5 	"/>
	<path class="st0" d="M240.1,40.9L221.8,0.4h-5l-18.3,40.4h5.9l4.4-9.8h20.7l4.4,9.8H240.1L240.1,40.9z M227.2,25.8h-16l8-18
		L227.2,25.8L227.2,25.8z"/>
</g>
</svg>
